<svg width="25" height="24" viewBox="0 0 25 24" fill="none" xmlns="http://www.w3.org/2000/svg">
<path d="M8.49359 22.9228H5.96979C3.18207 22.9228 0.92218 20.6563 0.92218 17.8606V9.89721C0.92218 8.12705 1.84414 6.48548 3.3536 5.56801L9.66311 1.73302C11.2712 0.75566 13.2874 0.75566 14.8955 1.73302L21.205 5.56801C22.7145 6.48548 23.6364 8.12705 23.6364 9.89721V17.8606C23.6364 20.6563 21.3765 22.9228 18.5888 22.9228H16.065M8.49359 22.9228V17.8606C8.49359 15.7637 10.1885 14.0639 12.2793 14.0639C14.3701 14.0639 16.065 15.7637 16.065 17.8606V22.9228M8.49359 22.9228H16.065" stroke="#40B5F8" stroke-width="1.21" stroke-linecap="round" stroke-linejoin="round"/>
</svg>
