<svg width="24" height="24" viewBox="0 0 24 24" fill="none" xmlns="http://www.w3.org/2000/svg">
<path d="M12.1736 15.406C14.0044 15.406 15.4885 13.9176 15.4885 12.0815C15.4885 10.2454 14.0044 8.75702 12.1736 8.75702C10.3428 8.75702 8.8587 10.2454 8.8587 12.0815C8.8587 13.9176 10.3428 15.406 12.1736 15.406Z" stroke="#737373" stroke-width="1.21" stroke-linecap="round" stroke-linejoin="round"/>
<path d="M20.596 10.3034L19.3831 7.36614L21.0132 5.43263L18.8033 3.21631L16.8859 4.85965L13.8948 3.62604L13.207 1H11.0476L10.3493 3.66083L7.42706 4.89623L5.54375 3.21631L3.33383 5.43263L4.93975 7.41495L3.74543 10.3598L1.1239 10.9734V13.1897L3.77704 13.9161L5.00868 16.8463L3.33383 18.7305L5.54375 20.9468L7.52292 19.3292L10.4023 20.5172L11.0686 23.1631H13.2785L13.9464 20.5182L16.8753 19.3018C17.3634 19.6517 18.8033 20.9468 18.8033 20.9468L21.0132 18.7305L19.3734 16.7906L20.5866 13.8524L23.2231 13.1645L23.2232 10.9734L20.596 10.3034Z" stroke="#737373" stroke-width="1.21" stroke-linecap="round" stroke-linejoin="round"/>
</svg>
